<svg id="ea61258a-e793-48f7-8624-3c5ca462ffd9" data-name="Layer 1" xmlns="http://www.w3.org/2000/svg" width="882.34637" height="778.99856" viewBox="0 0 882.34637 778.99856"><title>register</title><path d="M230.32422,458.34544l3.46953-5.362a80.3871,80.3871,0,0,0-3.55953-8.33251l-2.24351,1.812,1.77642-2.74534c-1.69294-3.3325-3.02505-5.43215-3.02505-5.43215s-6.95827,10.96511-9.283,22.57466l4.45222,6.88072-4.92881-3.981a32.52438,32.52438,0,0,0-.27041,4.0782c0,13.74959,4.49057,24.89583,10.03,24.89583s10.03-11.14624,10.03-24.89583a42.818,42.818,0,0,0-2.29454-12.84723Z" transform="translate(-158.82681 -60.50072)" fill="#566ea0"/><path d="M254.8821,470.26556l6.24485-1.33818a80.386,80.386,0,0,0,3.375-8.40894l-2.86772-.30508,3.19737-.68514c1.15934-3.55352,1.70208-5.98014,1.70208-5.98014s-12.67374,2.83326-22.52676,9.39864l-1.71721,8.01359-.67022-6.30016a32.52414,32.52414,0,0,0-3.07493,2.69252c-9.72243,9.72242-14.4287,20.77932-10.51175,24.69627s14.97385-.78932,24.69628-10.51174a42.818,42.818,0,0,0,7.46188-10.70686Z" transform="translate(-158.82681 -60.50072)" fill="#566ea0"/><path d="M257.16309,523.46949c-14.48118.92631-30.25994-.05387-47.04589,0V485.03764c14.79122,2.30262,30.56472,2.06615,47.04589,0Z" transform="translate(-158.82681 -60.50072)" fill="#3f3d56"/><rect x="500.99759" y="475.03125" width="195.51126" height="253.55366" fill="#e6e6e6"/><rect x="92.66419" y="488.269" width="10.18288" height="240.31592" fill="#e6e6e6"/><rect y="457.72036" width="696.50885" height="20.36576" fill="#e6e6e6"/><rect x="87.57275" y="478.08612" width="20.36576" height="20.36576" fill="#e6e6e6"/><polygon points="614.155 489.796 613.009 494.379 584.497 494.379 582.779 489.796 510.162 489.796 510.162 536.638 687.344 536.638 687.344 489.796 614.155 489.796" fill="#3f3d56"/><polygon points="614.155 548.857 613.009 553.439 584.497 553.439 582.779 548.857 510.162 548.857 510.162 595.698 687.344 595.698 687.344 548.857 614.155 548.857" fill="#3f3d56"/><polygon points="614.155 607.918 613.009 612.5 584.497 612.5 582.779 607.918 510.162 607.918 510.162 654.759 687.344 654.759 687.344 607.918 614.155 607.918" fill="#3f3d56"/><polygon points="614.155 666.979 613.009 671.561 584.497 671.561 582.779 666.979 510.162 666.979 510.162 713.82 687.344 713.82 687.344 666.979 614.155 666.979" fill="#3f3d56"/><polygon points="377.785 454.665 317.706 454.665 319.742 428.19 375.748 428.19 377.785 454.665" fill="#e6e6e6"/><rect x="314.65093" y="451.61063" width="67.20699" height="6.10973" fill="#e6e6e6"/><path d="M621.63862,318.12753H392.01472a6.10973,6.10973,0,0,0-6.10973,6.10973V464.25183H627.74834V324.23726A6.10973,6.10973,0,0,0,621.63862,318.12753Z" transform="translate(-158.82681 -60.50072)" fill="#3f3d56"/><path d="M385.905,464.25183V487.1633a6.10973,6.10973,0,0,0,6.10973,6.10973h229.6239a6.10973,6.10973,0,0,0,6.10972-6.10973V464.25183Z" transform="translate(-158.82681 -60.50072)" fill="#e6e6e6"/><rect x="239.29763" y="270.35541" width="217.91359" height="122.19453" fill="#fff"/><circle cx="348.25442" cy="418.00714" r="6.10973" fill="#3f3d56"/><rect x="309.96395" y="304.84783" width="58.75616" height="3.37283" fill="#566ea0"/><rect x="309.96395" y="317.15098" width="90.7323" height="3.37283" fill="#566ea0"/><rect x="309.96395" y="328.74233" width="73.94482" height="3.37283" fill="#566ea0"/><rect x="309.96395" y="340.28988" width="43.16779" height="3.37283" fill="#566ea0"/><rect x="309.96395" y="351.83743" width="65.15139" height="3.37283" fill="#566ea0"/><rect x="283.18393" y="303.64873" width="7.19463" height="7.19463" fill="#566ea0"/><rect x="283.18393" y="315.24008" width="7.19463" height="7.19463" fill="#566ea0"/><rect x="283.18393" y="326.83143" width="7.19463" height="7.19463" fill="#566ea0"/><rect x="283.18393" y="338.42278" width="7.19463" height="7.19463" fill="#566ea0"/><rect x="283.18393" y="350.01413" width="7.19463" height="7.19463" fill="#566ea0"/><rect x="543.25654" y="351.30929" width="79.42645" height="107.93851" fill="#e6e6e6"/><rect x="552.42113" y="363.76373" width="61.09727" height="83.02962" fill="#fff"/><rect x="576.46734" y="385.49176" width="29.60198" height="3.37283" fill="#566ea0"/><rect x="559.8702" y="383.62466" width="7.19463" height="7.19463" fill="#566ea0"/><rect x="576.46734" y="399.74779" width="29.60198" height="3.37283" fill="#566ea0"/><rect x="559.8702" y="397.88069" width="7.19463" height="7.19463" fill="#566ea0"/><rect x="576.46734" y="414.00382" width="29.60198" height="3.37283" fill="#566ea0"/><rect x="559.8702" y="412.13672" width="7.19463" height="7.19463" fill="#566ea0"/><rect x="579.9149" y="354.36415" width="6.10973" height="6.10973" rx="3.05486" fill="#3f3d56"/></svg>